<?xml version="1.0" standalone="no"?>
<!DOCTYPE svg PUBLIC "-//W3C//DTD SVG 20010904//EN"
 "http://www.w3.org/TR/2001/REC-SVG-20010904/DTD/svg10.dtd">
<svg version="1.0" xmlns="http://www.w3.org/2000/svg"
 width="260.000000pt" height="260.000000pt" viewBox="0 0 260.000000 260.000000"
 preserveAspectRatio="xMidYMid meet">
<metadata>
Created by potrace 1.14, written by Peter Selinger 2001-2017
</metadata>
<g transform="translate(0.000000,260.000000) scale(0.100000,-0.100000)"
fill="#000000" stroke="none">
<path d="M1311 2493 c-104 -37 -222 -209 -257 -374 -19 -89 -13 -209 16 -319
11 -41 20 -77 20 -79 0 -2 -13 9 -29 26 -15 16 -46 43 -67 59 -21 16 -41 32
-44 35 -13 15 -152 91 -207 114 -249 101 -450 39 -551 -169 -116 -238 29 -423
408 -521 30 -8 66 -16 80 -18 14 -3 42 -8 63 -12 l38 -7 -71 -24 c-212 -72
-389 -204 -456 -340 -26 -52 -29 -70 -29 -150 0 -84 2 -95 37 -165 64 -128
176 -241 276 -279 179 -68 363 45 530 324 57 94 132 256 132 284 0 8 2 13 5
11 2 -3 7 -38 10 -79 3 -41 8 -93 11 -115 12 -102 16 -131 19 -145 3 -8 7 -33
11 -54 13 -84 86 -286 106 -294 4 -2 8 -9 8 -15 0 -7 13 -26 28 -42 119 -131
260 -138 452 -24 179 106 270 247 273 422 3 145 -33 261 -122 397 -41 63 -38
59 -110 134 l-53 55 98 0 c55 1 113 3 129 6 323 59 507 253 447 470 -15 52
-74 150 -119 196 -94 98 -235 127 -406 85 -62 -16 -247 -102 -247 -116 0 -4
-11 -12 -25 -18 -23 -11 -24 -10 -15 12 27 73 41 272 25 366 -28 168 -109 301
-217 354 -60 30 -128 33 -197 9z"/>
</g>
</svg>
